<svg width="1382" height="246" viewBox="0 0 1382 246" fill="none" xmlns="http://www.w3.org/2000/svg">
<path d="M1257 1V245.251L1304 245V48.1501H1382V1H1257Z" fill="#44D62C"/>
<path d="M1188 88.5L1229 69.5C1228.6 69.1 1226.83 64.6667 1226 62.5L1221 52.5L1208 35.5L1194 22.5L1177 11.5L1165 6.5L1156 3.5L1147 1.5L1129 0H1118L1108 1L1097 2.5L1083 6.5L1072 10.5L1061 17L1052 23.5L1040 34.5L1029 47.5L1021 59.5L1015 73.5L1009 97.5L1008 113V125.278L1009 143L1014 165L1020 180L1029.5 195.5L1039 208L1051 219.5L1065 229.5L1081 236.5L1094 240.5L1105 242.5L1116.5 243.5H1124V197.5L1106.5 195.5L1091 190.5L1081.5 184.5L1073 177.5L1065 167.5L1059 156L1055.5 146L1054 138.5V120V107L1058 91.5L1062 82L1069.5 70L1079 60.5L1089.5 53.5L1099.5 49.5L1110 46.5L1124.5 45.5H1139L1150.5 48.5L1160 53L1171 61.5L1177 68.5L1182 76.5L1188 88.5Z" fill="#44D62C"/>
<path d="M835.2 1C835.09 1 835 1.08954 835 1.2V47.8C835 47.9105 835.09 48 835.2 48H971.8C971.91 48 972 47.9105 972 47.8V1.2C972 1.08954 971.91 1 971.8 1H835.2Z" fill="#44D62C"/>
<path d="M835.2 99C835.09 99 835 99.0895 835 99.2V145.8C835 145.91 835.09 146 835.2 146H971.8C971.91 146 972 145.91 972 145.8V99.2C972 99.0895 971.91 99 971.8 99H835.2Z" fill="#44D62C"/>
<path d="M835.2 197C835.09 197 835 197.09 835 197.2V243.8C835 243.91 835.09 244 835.2 244H971.8C971.91 244 972 243.91 972 243.8V197.2C972 197.09 971.91 197 971.8 197H835.2Z" fill="#44D62C"/>
<path d="M637 6V82L758 245H802.205L802 1H753L752 161L637 6Z" fill="#44D62C"/>
<path d="M448 6V82L569 245H613.205L613 1H564L563 161L448 6Z" fill="#44D62C"/>
<path d="M217 8L203 20L389 245L403 233L217 8Z" fill="#44D62C"/>
<path d="M407 193L408 191L409 189L410 187L411 185L412 183L413 181L416 175L417 173L418 171L419 169L421 163.5L422.5 157.5L424.5 149.5L425.5 141.5L426.5 133.5L427 125.5V116L426 104.5L423.5 90.5L419 76L411.5 60.5L402 47L390.5 33.5L379 23.5L365.5 14.5L351.5 8L337 4L323.5 2L311.5 1H299L284 2.5L269.5 6L256 11L287 48L300 47H313L327 49L340 53.5L352 61L361 68.5L367.5 76L373 84.5L376 92.5L378 100L379 106.5L380 116V135L378 144L376 152L375 156L407 193Z" fill="#44D62C"/>
<path d="M196 53L195 55L194 57L193 59L192 61L191 63L190 65L187 71L186 73L185 75L184 77L182 82.5L180.5 88.5L178.5 96.5L177.5 104.5L176.5 112.5L176 120.5V130L177 141.5L179.5 155.5L184 170L191.5 185.5L201 199L212.5 212.5L224 222.5L237.5 231.5L251.5 238L266 242L279.5 244L291.5 245H304L319 243.5L333.5 240L347 235L316 198L303 199H290L276 197L263 192.5L251 185L242 177.5L235.5 170L230 161.5L227 153.5L225 146L224 139.5L223 130L224 111L225 102L227 94L228 90L196 53Z" fill="#44D62C"/>
<path d="M65 1.22086C46.3333 1.05419 9 0.820861 9 1.22086L110 119.221V120.721L0 243.221V245.221H58L149 141.221V100.221L65 1.22086Z" fill="#44D62C"/>
</svg>
