<svg width="1040" height="1049" viewBox="0 0 1040 1049" fill="none" xmlns="http://www.w3.org/2000/svg" class="animate-svg"><defs><style>.animate-svg path{-webkit-animation:draw ease-in-out forwards;animation:draw ease-in-out forwards;stroke:#000}.animate-svg{-webkit-animation:fillopacity 3 ease-in-out forwards;animation:fillopacity 3s ease-in-out forwards}@-webkit-keyframes draw{100%{stroke-dashoffset:0}}@keyframes draw{100%{stroke-dashoffset:0}}@-webkit-keyframes fillopacity{0%,70%{fill-opacity:0;stroke-width:0.5%}100%{fill-opacity:1;stroke-width:0}}@keyframes fillopacity{0%,70%{fill-opacity:0;stroke-width:0.5%}100%{fill-opacity:1;stroke-width:0}}</style></defs>
<path fill-rule="evenodd" clip-rule="evenodd" d="M641 0L330 523V525L640 1049H734L1040 525V523L732 0H641ZM420 523L687 75L954 523V525L687 976L420 525V523Z" fill="#44D62C" style="stroke-dasharray: 4715.35; stroke-dashoffset: 4715.35; animation-delay: 0s; animation-duration: 1.47s;"></path>
<path fill-rule="evenodd" clip-rule="evenodd" d="M471 0L160 524V525L470 1049H564L874 525V524L563 0H471ZM250 524L517 75.5L784 524L517 975L250 524Z" fill="#44D62C" style="stroke-dasharray: 4716.48; stroke-dashoffset: 4716.48; animation-delay: 0.333333s; animation-duration: 1.47066s;"></path>
<path fill-rule="evenodd" clip-rule="evenodd" d="M306 0L0 525V526L306 1049H400L710 525V523L399 0H306ZM86 523L353 75L620 523V525L353 976L86 525V523Z" fill="#44D62C" style="stroke-dasharray: 4716.2; stroke-dashoffset: 4716.2; animation-delay: 0.666667s; animation-duration: 1.47049s;"></path>
</svg>
